<?xml version="1.0" encoding="UTF-8"?>
<svg id="Capa_1" data-name="Capa 1" xmlns="http://www.w3.org/2000/svg" viewBox="0 0 50 50">
  <defs>
    <style>
      .cls-1, .cls-2 {
        stroke-width: 0px;
      }

      .cls-2 {
        fill: #fff;
      }
    </style>
  </defs>
  <rect class="cls-1" width="50" height="50" rx="7.02" ry="7.02"/>
  <path class="cls-2" d="M40.77,25.5c0,5.97-3.08,11.22-7.77,14.24-.71-.26-1.39-.57-2.05-.9-1.24-.65-2.39-1.44-3.44-2.36-1.73-1.49-3.16-3.31-4.21-5.38-6.02-.44-11.2-3.87-14.06-8.83.69-1.21,1.53-2.34,2.5-3.34-.02-.23-.03-.45-.03-.69,0-1.73.45-3.34,1.23-4.73.66-.08,1.32-.11,2-.11,1.68,0,3.31.23,4.84.68,1.42-.42,2.94-.65,4.49-.68.74-1.15,1.61-2.2,2.6-3.13,1.47.98,2.65,2.41,3.37,4.05,1.63.53,3.16,1.31,4.54,2.28,2.15,1.49,3.92,3.42,5.23,5.68.24.4.45.82.65,1.24.08.65.11,1.31.11,1.99Z"/>
</svg>